<svg viewbox="0 0 85 79" fill="none" xmlns="http://www.w3.org/2000/svg">
  <path fill-rule="evenodd" clip-rule="evenodd" d="M3.476 53.466h71.117v-7.983H3.476v7.983Zm49.237 11.977h3.943v3.529H21.413v-3.529h3.942c.655 0 1.185-.529 1.185-1.183v-8.427h24.988v8.427c0 .654.53 1.183 1.185 1.183ZM3.476 43.116h71.117V2.952H3.476v40.164ZM2.29.585c-.655 0-1.185.529-1.185 1.183V54.65c0 .655.53 1.184 1.185 1.184h21.88v7.243h-3.943c-.655 0-1.185.532-1.185 1.184v5.895c0 .652.53 1.184 1.185 1.184h37.615c.654 0 1.185-.532 1.185-1.184V64.26c0-.652-.531-1.184-1.185-1.184h-3.944v-7.243h21.88c.655 0 1.186-.53 1.186-1.184V1.77c0-.655-.531-1.184-1.185-1.184H2.29Z" fill="#62E0D9" />
  <path fill-rule="evenodd" clip-rule="evenodd" d="M37.412 47.92c-.654 0-1.185.531-1.185 1.184a1.185 1.185 0 0 0 2.37 0c0-.653-.531-1.184-1.185-1.184Z" fill="#62E0D9" />
  <rect x="57.197" y="23.89" width="25.621" height="52.795" rx="1.641" fill="#181F2B" stroke="#62E0D9" stroke-width="1.641" />
  <path fill="#fff" stroke="#62E0D9" stroke-width=".592" d="M56.672 29.282h26.67v.592h-26.67zm0 37.869h26.67v.592h-26.67z" />
  <ellipse cx="69.415" cy="71.588" rx="1.185" ry="1.183" stroke="#62E0D9" stroke-width="1.01" />
  <path fill-rule="evenodd" clip-rule="evenodd" d="M46.4 15.969h-.197l-5.235 2.07-5.927-2.07-5.531 1.874c-.198.098-.395.197-.395.493v14.89c0 .297.197.494.494.494h.197l5.235-2.071 5.927 2.07 5.531-1.873c.198-.099.395-.296.395-.493V16.462c0-.296-.197-.493-.494-.493ZM40.968 30.76l-5.927-1.997V17.448l5.927 1.997v11.316Z" fill="#62E0D9" />
  <path fill-rule="evenodd" clip-rule="evenodd" d="M31.485 15.969c-1.32 0-2.37.917-2.37 2.07 0 1.54 2.37 3.847 2.37 3.847s2.37-2.308 2.37-3.846c0-1.154-1.049-2.071-2.37-2.071Zm0 2.958c-.51 0-.911-.361-.911-.821 0-.46.4-.822.911-.822.51 0 .912.361.912.822 0 .46-.401.821-.912.821Z" fill="#fff" />
</svg>