<svg xmlns="http://www.w3.org/2000/svg" viewBox="0 0 108 31"><path fill-rule="evenodd" clip-rule="evenodd" d="M0 8.563v.08l18.468 8.564L37 8.614v-.022L18.468 0 0 8.563Zm6.658.04 11.81-5.476 11.811 5.476-11.811 5.476-11.81-5.476Zm11.81 11.93L0 12.097v3.12l18.468 8.455L37 15.189v-3.12l-18.532 8.464Zm0 6.327L0 18.424v3.12L18.468 30 37 21.515v-3.12L18.468 26.86Zm85.367-11.374a5.144 5.144 0 0 0-1.403-3.578 4.715 4.715 0 0 0-1.518-1.074 4.502 4.502 0 0 0-1.851-.386c-.656 0-1.273.129-1.852.386a4.71 4.71 0 0 0-1.518 1.074 5.15 5.15 0 0 0-1.403 3.578 5.149 5.149 0 0 0 1.403 3.578c.434.458.94.816 1.519 1.073a4.497 4.497 0 0 0 1.85.386 4.5 4.5 0 0 0 1.852-.386 4.715 4.715 0 0 0 1.518-1.073 5.153 5.153 0 0 0 1.403-3.578Zm4.165 0c0 1.24-.231 2.39-.694 3.449a8.407 8.407 0 0 1-1.909 2.748 9.103 9.103 0 0 1-2.849 1.832 9.068 9.068 0 0 1-3.485.672 8.96 8.96 0 0 1-3.471-.672 9.01 9.01 0 0 1-2.835-1.846 8.568 8.568 0 0 1-1.909-2.763 8.448 8.448 0 0 1-.694-3.42 8.22 8.22 0 0 1 .709-3.392 8.935 8.935 0 0 1 1.923-2.777 8.886 8.886 0 0 1 2.835-1.86 8.884 8.884 0 0 1 3.442-.673c1.234 0 2.395.224 3.485.673a9.103 9.103 0 0 1 2.849 1.832 8.368 8.368 0 0 1 1.909 2.762 8.546 8.546 0 0 1 .694 3.435Zm-19.292 8.186a5.621 5.621 0 0 1-1.114.372 5.716 5.716 0 0 1-1.287.143 6.46 6.46 0 0 1-1.779-.243 3.91 3.91 0 0 1-1.49-.787c-.423-.363-.76-.835-1.011-1.417-.251-.582-.377-1.283-.377-2.104V0h4.252v18.92c0 .688.14 1.16.42 1.417.28.258.612.387.998.387.482 0 .944-.143 1.388-.43v3.378ZM79.77 7.185 72.25 26.85c-.559 1.469-1.292 2.528-2.198 3.177-.906.649-1.986.973-3.24.973a5.22 5.22 0 0 1-1.3-.172l-1.39-3.835c.329.152.666.272 1.013.357a4.1 4.1 0 0 0 .983.13 3.67 3.67 0 0 0 1.794-.445c.54-.295.954-.844 1.243-1.645l.579-1.66-6.45-16.545h4.541l3.847 10.648 3.615-10.648h4.483Zm-17.498-2.49H51.396v5.323h10.731v3.607h-10.73v10.133H47V.888h15.272v3.806Z" fill="#fff"/></svg>